<svg xmlns="http://www.w3.org/2000/svg" width="154.265" height="90.942" viewBox="0 0 154.265 90.942"><g id="Group_51" data-name="Group 51" transform="translate(-169.377 -322.404)"><path id="Path_64" data-name="Path 64" d="M476.27,333.676c-6.767-7.763-15.3-11.017-25.449-9.6-10.078,1.412-17.058,7.346-21.484,16.215a30.794,30.794,0,0,0,6.543,35.721c8.4,7.92,21.826,10.006,31.884,4.442,10.457-5.783,15.549-14.925,15.85-25.133-.033-9.218-2.351-15.922-7.345-21.651M464.7,361.334c-2.372,4.175-6.184,5.854-10.905,5.461-4.55-.377-7.576-2.9-9.4-6.975a15.851,15.851,0,0,1-1.2-6.563c.067-4.049,1.4-7.918,5.017-10.647a11.236,11.236,0,0,1,16.584,3.584,14.594,14.594,0,0,1-.094,15.141" transform="translate(-203.32 -1.07)"></path><path id="Path_65" data-name="Path 65" d="M224.386,380.065c.008.809-.253,1.092-1.068,1.086q-6.578-.041-13.155,0c-.809.006-1.07-.263-1.066-1.082q.041-9.962,0-19.927a4.764,4.764,0,0,0-.348-1.224,4.359,4.359,0,0,0-1.212.632c-3.122,3.26-6.21,6.551-9.308,9.831-.964,1.019-1.783,1.025-2.74.016-3.123-3.3-6.235-6.616-9.379-9.9a3.913,3.913,0,0,0-1.125-.573,3.792,3.792,0,0,0-.375,1.119c-.024,6.61-.035,13.221,0,19.831.006.98-.252,1.3-1.261,1.286-4.22-.053-8.443-.021-12.663-.024-1.31,0-1.312,0-1.312-1.288q0-14.086,0-28.175,0-13.989.016-27.976a4.86,4.86,0,0,1,.373-1.294,4.365,4.365,0,0,1,1.353.617c2.765,2.785,5.489,5.611,8.22,8.431q6.693,6.9,13.38,13.815c1.137,1.174,2.305,2.321,3.4,3.533.573.634.954.552,1.5-.021q5.779-6.012,11.6-11.987,6.589-6.8,13.183-13.6a1.847,1.847,0,0,1,.5-.458c.34-.149.781-.383,1.055-.273.228.094.385.628.387.97q.038,6.086,0,12.172a2.6,2.6,0,0,1-.324,1.186q-8.722,15.795-.008,31.584a2.643,2.643,0,0,1,.332,1.186c.025,3.5-.006,7,.029,10.5" transform="translate(0)"></path><path id="Path_66" data-name="Path 66" d="M727.99,350.312a25.723,25.723,0,0,0-8.167-14.21c-4.378-3.827-9.64-5.443-15.314-5.75-3.586-.195-7.194-.037-10.791-.037v-.087q-5.349,0-10.7,0c-1.382,0-1.384,0-1.384,1.43,0,1.308.092,2.626-.022,3.924-.189,2.146.134,4.073,1.823,5.581a.785.785,0,0,1,.114.159A30.91,30.91,0,0,1,682.261,378a2.953,2.953,0,0,0-.6,1.652c-.069,2.158.012,4.318-.047,6.477-.025.967.332,1.229,1.255,1.217,3.4-.043,6.8.018,10.208-.025,4.281-.053,8.588.092,12.839-.308,9.4-.888,16.174-5.8,20.139-14.35,3.329-7.176,3.635-14.713,1.934-22.352m-16.751,14.554a8.8,8.8,0,0,1-8.419,6.479c-1.337.073-2.683,0-4.02.065-.858.041-1.143-.265-1.135-1.123.035-3.825.015-7.651.015-11.477s.018-7.653-.015-11.478c-.006-.866.22-1.247,1.163-1.182,1.691.114,3.411-.018,5.082.216a8.462,8.462,0,0,1,7.364,6.427,20.536,20.536,0,0,1-.035,12.073" transform="translate(-405.361 -6.192)"></path><rect id="Rectangle_51" data-name="Rectangle 51" width="76.729" height="3.156" transform="translate(245.74 388.745)"></rect><path id="Path_67" data-name="Path 67" d="M466.578,655.5V659.4H449.4c.994-1.141,1.862-2.142,2.736-3.136,2.308-2.629,4.641-5.239,6.923-7.892a10.231,10.231,0,0,0,2.731-5.65,6.933,6.933,0,0,0-.181-2.415,3.261,3.261,0,0,0-3.58-2.423,3.537,3.537,0,0,0-3.376,3.016c-.1.479-.138.968-.224,1.591-1.241,0-2.477.026-3.706-.031-.169-.008-.444-.432-.454-.672a7.773,7.773,0,0,1,7.59-7.995c2.357-.049,4.605.3,6.373,2,2.59,2.5,2.718,5.593,1.877,8.825-.74,2.848-2.632,5-4.564,7.1-.8.866-1.64,1.689-2.433,2.561a4.64,4.64,0,0,0-.512.889,3.951,3.951,0,0,0,1.053.32c1.93.033,3.861.016,5.791.016Z" transform="translate(-221.618 -246.436)"></path><rect id="Rectangle_52" data-name="Rectangle 52" width="57.722" height="3.162" transform="translate(170.075 388.615)"></rect><path id="Path_68" data-name="Path 68" d="M554.833,676.189a8.589,8.589,0,1,0,7.861,8.752,8.435,8.435,0,0,0-7.861-8.752m4.309,10.51a4.831,4.831,0,0,1-6.284,3.252,5.263,5.263,0,0,1-3.285-5.187c0-3.721,2.981-6.233,6.268-5.283,2.749.8,4.287,4.161,3.3,7.217" transform="translate(-298.298 -279.994)"></path><path id="Path_69" data-name="Path 69" d="M339.818,671.762c-.028,0-.053.027-.216.12v8.446a6.6,6.6,0,0,1-.723-.411,4.429,4.429,0,0,0-6.239.552,5.829,5.829,0,0,0-1.231,4.7,4.691,4.691,0,0,0,2.777,4.1,4.227,4.227,0,0,0,4.837-.721,2.183,2.183,0,0,1,.483-.232c.074.395.132.7.2,1.049h2.61V673.906c0-2.449,0-2.449-2.5-2.144M336.85,687.4a2.888,2.888,0,0,1-2.783-3.144,2.821,2.821,0,0,1,2.843-3.06,3.121,3.121,0,0,1-.061,6.2" transform="translate(-128.19 -276.383)"></path><path id="Path_70" data-name="Path 70" d="M803.936,672.343V680.9c-.334-.206-.5-.291-.644-.4a4.529,4.529,0,0,0-7.193,2.094,6.479,6.479,0,0,0-.037,4.418,4.5,4.5,0,0,0,7.268,2.148,2.38,2.38,0,0,1,.544-.226c.073.375.134.679.195,1h2.541V672.343ZM801.2,687.971a2.924,2.924,0,0,1-2.791-3.156,2.859,2.859,0,0,1,2.879-3.048,3.12,3.12,0,0,1-.088,6.2" transform="translate(-495.685 -276.953)"></path><path id="Path_71" data-name="Path 71" d="M862.209,712.689c1.569-.014,3.138,0,4.709,0h1.648c0-.591.018-.98,0-1.369-.153-2.953-1.978-4.858-4.76-4.974a4.958,4.958,0,0,0-5.169,4.491c-.524,4.167,2.588,6.989,6.84,6.2,1.885-.349,2.005-.515,1.791-2.451,0-.031-.026-.059-.02-.045a18.124,18.124,0,0,1-2.646.568,3.072,3.072,0,0,1-3.038-1.2c-.518-.782-.285-1.21.646-1.218m-.982-1.877a1.965,1.965,0,0,1,1.1-2.072,2.543,2.543,0,0,1,2.7.118,1.76,1.76,0,0,1,.823,1.954Z" transform="translate(-545.455 -303.857)"></path><path id="Path_72" data-name="Path 72" d="M402.722,714.521a17.477,17.477,0,0,1-2.549.587A3.107,3.107,0,0,1,397.1,714a1.7,1.7,0,0,1-.206-1.086c.012-.1.561-.206.866-.208,2.027-.019,4.054-.01,6.286-.01a21.394,21.394,0,0,0-.159-2.362,4.606,4.606,0,0,0-4.552-3.975,4.859,4.859,0,0,0-5.024,3.57c-1.29,4.4,2,7.962,6.588,7.123,1.917-.352,2.005-.464,1.87-2.4a.338.338,0,0,0-.047-.13m-4.128-6.039a2.254,2.254,0,0,1,2.736,1.618c.037.24-.242.754-.393.76-1.394.059-2.795.035-4.179.035a2.078,2.078,0,0,1,1.836-2.413" transform="translate(-177.796 -303.87)"></path><path id="Path_73" data-name="Path 73" d="M213.753,716.8H211.2v-2.508c0-1.211.028-2.423-.012-3.633a1.809,1.809,0,0,0-1.461-1.944,2.136,2.136,0,0,0-2.388,1.135,5.233,5.233,0,0,0-.4,1.891c-.055,1.662-.02,3.328-.02,5.088H204.36V706.7h2.468c.073.391.14.754.236,1.284a7.8,7.8,0,0,1,.888-.628,9.325,9.325,0,0,1,2.029-.927,2.836,2.836,0,0,1,3.729,2.472c.167,2.6.043,5.22.043,7.9" transform="translate(-27.687 -303.848)"></path><path id="Path_74" data-name="Path 74" d="M645.483,714.793c-.259,2.435-1.826,3.692-4.35,3.7-2.539.01-4.162-1.221-4.4-3.645-.192-1.976-.079-3.983-.092-5.976,0-.254.039-.507.065-.819h2.622v2.015c0,1.339-.014,2.681.006,4.022.02,1.414.611,2.082,1.789,2.074,1.153-.008,1.742-.695,1.758-2.113.018-1.668,0-3.335.006-5v-1h2.69c0,.736.008,1.44,0,2.143-.018,1.536.071,3.083-.092,4.6" transform="translate(-369.791 -305.208)"></path><rect id="Rectangle_53" data-name="Rectangle 53" width="2.954" height="16.41" transform="translate(170.654 396.569)"></rect><path id="Path_75" data-name="Path 75" d="M732.043,714.316a2.977,2.977,0,0,1-2.651,2.744,5.148,5.148,0,0,1-5.4-1.8c.589-.466,1.125-.886,1.555-1.227a13.117,13.117,0,0,0,2.156,1.049,1.157,1.157,0,0,0,1.595-.73c.212-.8-.4-1.1-1-1.333-.667-.263-1.365-.458-2.021-.746a2.966,2.966,0,0,1,.518-5.7,4.939,4.939,0,0,1,5.025,1.5l-1.3,1.037a15.664,15.664,0,0,0-2.555-.572,1.233,1.233,0,0,0-.932.774,1.325,1.325,0,0,0,.64,1.031,21.424,21.424,0,0,0,2.186.845,2.976,2.976,0,0,1,2.18,3.128" transform="translate(-438.942 -303.917)"></path><path id="Path_76" data-name="Path 76" d="M267.658,714.282a3.04,3.04,0,0,1-2.722,2.794,5.052,5.052,0,0,1-5.316-1.824l1.508-1.2a15.044,15.044,0,0,0,2.319,1.054,1.116,1.116,0,0,0,1.481-.788c.177-.742-.389-1.043-.957-1.267s-1.174-.4-1.752-.625a3.018,3.018,0,0,1,.6-5.933,5.047,5.047,0,0,1,4.664,1.544c-.581.457-1.092.86-1.475,1.16a7.078,7.078,0,0,0-2-.693,1.771,1.771,0,0,0-1.357.779c-.308.611.306.988.838,1.2.636.257,1.3.436,1.938.689a3.012,3.012,0,0,1,2.225,3.1" transform="translate(-71.421 -303.918)"></path><path id="Path_77" data-name="Path 77" d="M695.416,689.183v1.931c-.086.055-.137.114-.194.12-1.679.143-1.681.143-1.681,1.9v6.127H690.85V692.8c0-1.42,0-1.42-1.363-1.632v-2.1c1.326.32,1.4-.42,1.38-1.42-.053-2.562-.018-2.562,2.5-3.492.022-.008.059.023.171.069,0,1.162.071,2.366-.02,3.558-.079,1.029.252,1.459,1.29,1.312a2.3,2.3,0,0,1,.6.09" transform="translate(-411.631 -286.299)"></path><rect id="Rectangle_54" data-name="Rectangle 54" width="2.51" height="10.12" transform="translate(198.458 402.849)"></rect><rect id="Rectangle_55" data-name="Rectangle 55" width="2.51" height="10.119" transform="translate(295.32 402.847)"></rect><path id="Path_78" data-name="Path 78" d="M774.679,681.826a1.528,1.528,0,0,1-1.691,1.6A1.553,1.553,0,0,1,771.4,681.8a1.677,1.677,0,0,1,1.665-1.7,1.626,1.626,0,0,1,1.612,1.726" transform="translate(-476.461 -283.092)"></path><path id="Path_79" data-name="Path 79" d="M310.247,681.808a1.649,1.649,0,0,1-3.3.039,1.65,1.65,0,1,1,3.3-.039" transform="translate(-108.879 -283.106)"></path></g></svg>