<?xml version="1.0" encoding="UTF-8" standalone="no"?>
<!-- Created with Inkscape (http://www.inkscape.org/) -->

<svg
   width="145.7538mm"
   height="145.25363mm"
   viewBox="0 0 145.7538 145.25363"
   version="1.1"
   id="svg5"
   inkscape:version="1.1.1 (3bf5ae0d25, 2021-09-20)"
   sodipodi:docname="logo.svg"
   xmlns:inkscape="http://www.inkscape.org/namespaces/inkscape"
   xmlns:sodipodi="http://sodipodi.sourceforge.net/DTD/sodipodi-0.dtd"
   xmlns="http://www.w3.org/2000/svg"
   xmlns:svg="http://www.w3.org/2000/svg">
  <sodipodi:namedview
     id="namedview7"
     pagecolor="#505050"
     bordercolor="#eeeeee"
     borderopacity="1"
     inkscape:pageshadow="0"
     inkscape:pageopacity="0"
     inkscape:pagecheckerboard="0"
     inkscape:document-units="mm"
     showgrid="false"
     inkscape:zoom="0.60756173"
     inkscape:cx="201.6256"
     inkscape:cy="288.03658"
     inkscape:window-width="1920"
     inkscape:window-height="1018"
     inkscape:window-x="0"
     inkscape:window-y="0"
     inkscape:window-maximized="1"
     inkscape:current-layer="layer1"
     fit-margin-top="0"
     fit-margin-left="0"
     fit-margin-right="0"
     fit-margin-bottom="0" />
  <defs
     id="defs2" />
  <g
     inkscape:label="Capa 1"
     inkscape:groupmode="layer"
     id="layer1"
     transform="translate(-33.666368,-72.144258)">
    <g
       id="g62183">
      <ellipse
         style="fill:#f8c10f;fill-opacity:1;stroke:none;stroke-width:1.31246;stroke-linecap:round;stroke-linejoin:round"
         id="path51252"
         cx="106.32099"
         cy="145.00642"
         rx="59.442184"
         ry="60.732468" />
      <path
         id="path51210"
         style="fill:#000000;stroke-width:0.264583"
         d="m 141.10791,123.21157 0.0532,1.98437 c 0.0292,1.09141 0.2228,4.84188 0.42995,8.33438 0.20716,3.4925 0.50756,9.0289 0.66766,12.30312 0.16009,3.27422 0.34903,6.34008 0.42013,6.81302 l 0.12971,0.8599 h 3.8194 c 3.74966,0 3.82126,-0.0109 3.93671,-0.59531 0.1054,-0.53353 0.53315,-8.37016 1.22318,-22.42344 0.13219,-2.69214 0.26973,-5.43058 0.30593,-6.08542 l 0.0656,-1.19062 h -5.52577 z m -70.191589,1.33067 c -3.958082,-0.0307 -7.50012,2.01556 -9.033555,5.36504 -0.968621,2.1161 -0.971468,5.38839 -0.0067,7.49567 1.265483,2.76418 4.172497,4.851 7.331852,5.26324 h 5.19e-4 c 0.812382,0.10551 1.774645,0.15526 2.13837,0.11007 4.319649,-0.53639 6.759819,-2.0427 8.266679,-5.10356 0.768278,-1.56072 0.861446,-1.99414 0.861446,-4.01009 0,-2.02215 -0.09218,-2.4466 -0.873334,-4.03335 -1.340487,-2.72293 -3.754448,-4.43605 -6.968048,-4.9444 -0.577794,-0.0914 -1.151768,-0.13825 -1.717209,-0.14262 z m 54.705189,0.32246 c -0.95673,0.008 -1.65367,0.0796 -1.77922,0.19585 -0.15899,0.14721 -1.5125,3.06566 -3.00757,6.48539 -1.49509,3.41974 -3.09109,7.01543 -3.54707,7.99021 l -0.8294,1.7725 -1.48415,-2.17661 -1.48415,-2.17661 1.13223,-0.98495 c 2.75808,-2.39923 2.49595,-7.28229 -0.51418,-9.57823 -1.57706,-1.20288 -3.12808,-1.47492 -8.5571,-1.50172 l -4.96766,-0.0243 -0.0698,8.76381 -0.0698,8.76432 h 2.90371 2.90318 l 0.077,-2.16317 0.0765,-2.16266 0.85163,-0.0393 c 0.7872,-0.0362 0.96211,0.12749 2.32027,2.16834 l 1.46916,2.2071 5.44515,-0.0713 5.44566,-0.0713 0.58446,-1.45521 0.58446,-1.4552 3.30316,-0.0739 3.30367,-0.0739 0.5457,1.52911 0.54519,1.52859 2.94814,0.0749 c 2.31722,0.0588 2.94814,-3.6e-4 2.94814,-0.27751 0,-0.19394 -0.0967,-0.46584 -0.21497,-0.60409 -0.11826,-0.13824 -0.67471,-1.32324 -1.23662,-2.63292 -0.56192,-1.30969 -1.4539,-3.33374 -1.98231,-4.49791 -0.52841,-1.16417 -1.66495,-3.74597 -2.52542,-5.73764 l -1.56425,-3.62148 -2.52233,-0.0858 c -0.36511,-0.0125 -0.71255,-0.017 -1.03146,-0.0145 z m -36.892839,0.0325 c -2.647881,-0.0166 -5.201131,-0.0158 -5.674071,0.002 l -0.859896,0.032 v 8.74882 8.7483 l 6.283854,-0.0837 c 6.256049,-0.0831 6.290649,-0.0864 7.779369,-0.81753 0.822439,-0.40389 1.706853,-1.05722 1.965253,-1.45159 1.170522,-1.78645 0.909765,-4.46766 -0.578776,-5.95622 l -0.923456,-0.92398 0.674378,-0.99425 c 1.179488,-1.73806 0.992441,-4.01824 -0.460439,-5.61361 -1.170508,-1.28529 -2.974956,-1.65684 -8.206216,-1.69034 z m -0.977717,4.26744 h 1.933731 c 2.097201,0 2.949636,0.36723 2.788978,1.20148 -0.05349,0.27776 -0.393517,0.6553 -0.756028,0.83871 -0.362519,0.18342 -1.403536,0.33544 -2.313035,0.33745 l -1.653646,0.004 v -1.19062 z m 18.520836,0.20309 1.70481,0.10852 c 2.10765,0.13421 2.79311,0.64876 2.79311,2.096 0,0.73584 -0.15639,1.11148 -0.58808,1.41386 -0.38061,0.26658 -1.17392,0.41187 -2.24896,0.41187 h -1.66088 v -2.01487 z m -35.607649,0.0935 c 0.174355,-5.9e-4 0.356264,0.007 0.546219,0.0227 2.53596,0.2103 3.70854,1.74078 3.526401,4.60127 -0.1148,1.80289 -0.652417,2.67561 -2.119767,3.43907 -1.825562,0.94984 -4.349967,0.11911 -5.319057,-1.75028 -0.708189,-1.36611 -0.519252,-3.96874 0.356569,-4.90616 0.921715,-0.98654 1.789149,-1.40246 3.009635,-1.40664 z m 55.715979,2.08463 c 0.16545,0 1.32292,2.60884 1.32292,2.98173 0,0.10632 -0.59531,0.19327 -1.32292,0.19327 -0.7276,0 -1.32291,-0.087 -1.32291,-0.19327 0,-0.37289 1.15747,-2.98173 1.32291,-2.98173 z m -38.629166,4.23334 h 2.4815 c 1.873052,0 2.561082,0.0968 2.807581,0.39377 0.465511,0.56092 0.119073,1.63014 -0.589629,1.82004 -0.329009,0.0882 -1.521142,0.16182 -2.648931,0.16382 l -2.050521,0.004 v -1.19063 z m -16.886825,11.39103 c -0.879652,-0.005 -1.735309,0.12336 -2.607593,0.38241 -1.66628,0.49483 -2.596814,1.2149 -3.266985,2.52853 -1.026488,2.01209 -0.453885,4.52257 1.305864,5.72419 0.810771,0.55363 1.389682,0.76607 4.87257,1.78697 1.484471,0.43513 2.560052,1.16915 2.560052,1.74718 0,0.15214 -0.292383,0.56885 -0.649573,0.92604 -0.541941,0.54194 -0.905976,0.64906 -2.201415,0.64906 -1.890483,0 -3.752067,-0.59826 -4.569749,-1.46864 -0.334819,-0.35639 -0.704987,-0.64803 -0.822687,-0.64803 -0.1177,0 -0.529257,0.62175 -0.914157,1.38132 l -0.699698,1.38079 0.953428,0.82424 c 0.86192,0.74508 2.932946,1.5411 4.670518,1.79524 1.149768,0.16816 3.532076,-0.15519 4.630208,-0.62839 1.271299,-0.54782 2.08212,-1.37804 2.63343,-2.69751 0.53567,-1.28203 0.509193,-2.20669 -0.101285,-3.5512 -0.640001,-1.4095 -2.008672,-2.21716 -5.31027,-3.13314 -2.948151,-0.81793 -3.670487,-1.35467 -3.288688,-2.44327 0.527849,-1.50498 3.487142,-1.72272 6.033222,-0.4439 0.71347,0.35836 1.324642,0.61876 1.35754,0.57826 0.03291,-0.0405 0.199136,-0.34179 0.369488,-0.66921 0.2897,-0.55681 0.480052,-0.59531 2.946072,-0.59531 h 2.636533 v 6.74688 6.74687 h 1.719791 1.719792 v -6.73705 -6.73758 l 2.579688,-0.0755 2.579687,-0.076 0.07958,-1.52135 0.07907,-1.52136 h -7.024378 c -6.96717,0 -7.024894,0.005 -7.024894,0.55759 0,0.43108 -0.104952,0.51201 -0.463021,0.35657 -1.784056,-0.77445 -3.316049,-1.15601 -4.782137,-1.16479 z m 27.073283,0.12712 c -2.03,0 -2.595899,0.10308 -3.836458,0.69867 -3.09835,1.48751 -4.826069,4.14222 -4.863269,7.47345 -0.03002,2.68526 0.638317,4.42981 2.354376,6.14587 1.465572,1.46557 2.695599,2.12278 4.625559,2.47169 2.684389,0.4853 5.75571,-0.35007 7.76129,-2.11098 4.46085,-3.91668 3.27718,-11.4304 -2.20504,-13.9976 -1.22562,-0.57393 -1.830908,-0.6811 -3.836458,-0.6811 z m 10.451048,0.0811 v 8.35556 8.35608 h 1.71979 1.71979 v -2.38125 -2.38125 l 1.78594,0.004 c 0.98225,0.002 1.90807,0.0915 2.05724,0.19844 0.14915,0.10691 0.97181,1.17709 1.82831,2.37763 l 1.55752,2.18282 h 1.95751 c 1.49286,0 1.9114,-0.0785 1.76371,-0.33073 -0.1065,-0.1819 -0.8967,-1.32748 -1.75596,-2.54558 -0.85927,-1.21809 -1.61564,-2.35447 -1.68103,-2.52491 -0.0654,-0.17045 0.25235,-0.58414 0.70641,-0.91984 2.24214,-1.65769 2.47798,-6.2594 0.43305,-8.45168 -0.32047,-0.34357 -1.05916,-0.8806 -1.64124,-1.19321 -0.94636,-0.50826 -1.55522,-0.57793 -5.75469,-0.65733 z m 15.34583,0.0424 v 8.33438 8.33437 h 6.21771 6.21771 v -1.58078 -1.5813 l -4.43177,-0.0724 -4.43178,-0.0729 -0.078,-1.78594 -0.0786,-1.78594 h 3.98116 3.98063 v -1.58026 -1.58026 l -3.89898,-0.0734 -3.89899,-0.0734 -0.0724,-1.65364 -0.0723,-1.65365 h 4.3682 4.36821 v -1.5875 -1.5875 h -6.08541 z m -11.90625,3.175 h 2.12545 c 3.37982,0 4.48913,0.70637 4.48913,2.85719 0,1.23837 -0.88585,2.28122 -2.15336,2.53473 -0.45268,0.0905 -1.64176,0.16433 -2.64221,0.16433 h -1.81901 v -2.77812 z m -13.973829,5.2e-4 c 1.79705,-4.9e-4 2.736319,0.31896 3.744999,1.2733 2.63878,2.4967 1.96851,7.07765 -1.24954,8.53902 -0.598973,0.27201 -1.684659,0.49454 -2.412258,0.49454 -4.432731,0 -6.898055,-4.79345 -4.258657,-8.28011 1.092751,-1.44354 2.293157,-2.02622 4.175456,-2.02675 z m 44.136329,4.62969 v 4.10104 4.10104 l 4.69635,-0.0548 4.69636,-0.0553 -0.015,-3.99252 -0.0155,-3.99252 -4.68085,-0.0532 z" />
      <ellipse
         style="fill:none;fill-opacity:1;stroke:#000000;stroke-width:14.0865;stroke-linecap:round;stroke-linejoin:round;stroke-miterlimit:4;stroke-dasharray:none;stroke-opacity:1"
         id="path51252-4"
         cx="106.54327"
         cy="144.77107"
         rx="65.833649"
         ry="65.583565" />
    </g>
    <text
       xml:space="preserve"
       style="font-style:normal;font-variant:normal;font-weight:normal;font-stretch:normal;font-size:25.4px;line-height:1.25;font-family:Z003;-inkscape-font-specification:Z003;fill:#000000;fill-opacity:1;stroke:none;stroke-width:0.264583"
       x="65.31237"
       y="152.1778"
       id="text4344"><tspan
         sodipodi:role="line"
         id="tspan4342"
         style="font-style:normal;font-variant:normal;font-weight:normal;font-stretch:normal;font-size:25.4px;font-family:'Source Code Pro';-inkscape-font-specification:'Source Code Pro';stroke-width:0.264583"
         x="65.31237"
         y="152.1778" /></text>
  </g>
</svg>
